<svg xmlns="http://www.w3.org/2000/svg" viewBox="0 0 32 32">
  <!-- Background circle -->
  <circle cx="16" cy="16" r="16" fill="#1e3799"/>
  
  <!-- Larger, clearer N -->
  <path 
    d="M8 7 
       L8 25 
       L12 25 
       L20 11 
       L20 25 
       L24 25 
       L24 7 
       L20 7 
       L12 21 
       L12 7 
       Z" 
    fill="white"/>
  
  <!-- Subtle notebook lines -->
  <line x1="8" y1="28" x2="24" y2="28" stroke="white" stroke-width="0.75" stroke-opacity="0.6"/>
  <line x1="8" y1="26" x2="24" y2="26" stroke="white" stroke-width="0.75" stroke-opacity="0.6"/>
</svg><svg xmlns="http://www.w3.org/2000/svg" viewBox="0 0 32 32">
  <!-- Background circle -->
  <circle cx="16" cy="16" r="16" fill="#2e3192"/>
  
  <!-- Letter N in stylized form -->
  <path d="M10 8 L10 24 L14 24 L22 12 L22 24 L18 24 L18 16 L14 24 L10 24 L10 8" 
        fill="white"/>
  
  <!-- Small line details to represent notes -->
  <line x1="6" y1="28" x2="26" y2="28" stroke="white" stroke-width="1"/>
  <line x1="6" y1="26" x2="26" y2="26" stroke="white" stroke-width="1"/>
</svg>
